<mxfile host="app.diagrams.net" modified="2021-09-26T09:27:26.248Z" agent="5.0 (Macintosh; Intel Mac OS X 10_14_5) AppleWebKit/537.36 (KHTML, like Gecko) Chrome/93.0.4577.63 Safari/537.36" etag="9vjTjZPkZA7aub3XpsyL" version="14.9.9" type="github">
  <diagram id="kW06Qgidbk0OTePyhjzd" name="第 1 页">
    <mxGraphModel dx="1426" dy="771" grid="1" gridSize="10" guides="1" tooltips="1" connect="1" arrows="1" fold="1" page="1" pageScale="1" pageWidth="2500" pageHeight="4000" math="0" shadow="0">
      <root>
        <mxCell id="0" />
        <mxCell id="1" parent="0" />
        <mxCell id="XzQIP6qpDgnseQ4LIaWj-4" value="pay-fund-channel" style="shape=umlLifeline;perimeter=lifelinePerimeter;whiteSpace=wrap;html=1;container=1;collapsible=0;recursiveResize=0;outlineConnect=0;rounded=1;shadow=0;comic=0;labelBackgroundColor=none;strokeWidth=1;fontFamily=Verdana;fontSize=12;align=center;" parent="1" vertex="1">
          <mxGeometry x="800" y="170" width="100" height="4520" as="geometry" />
        </mxCell>
        <mxCell id="lfuquiuAlMo9zvZJqDUm-64" value="" style="html=1;points=[];perimeter=orthogonalPerimeter;rounded=0;shadow=0;comic=0;labelBackgroundColor=none;strokeWidth=1;fontFamily=Verdana;fontSize=12;align=center;" parent="1" vertex="1">
          <mxGeometry x="845" y="3620" width="10" height="310" as="geometry" />
        </mxCell>
        <mxCell id="lfuquiuAlMo9zvZJqDUm-1" value="alt特殊场景路由配置" style="shape=umlFrame;whiteSpace=wrap;html=1;width=70;height=51;" parent="1" vertex="1">
          <mxGeometry x="760" y="1789" width="260" height="641" as="geometry" />
        </mxCell>
        <mxCell id="XzQIP6qpDgnseQ4LIaWj-1" value="&lt;span&gt;&lt;font style=&quot;font-size: 12px&quot;&gt;pay-assetcenter&lt;/font&gt;&lt;/span&gt;" style="shape=umlLifeline;perimeter=lifelinePerimeter;whiteSpace=wrap;html=1;container=0;collapsible=0;recursiveResize=0;outlineConnect=0;rounded=1;shadow=0;comic=0;labelBackgroundColor=none;strokeWidth=1;fontFamily=Verdana;fontSize=12;align=center;" parent="1" vertex="1">
          <mxGeometry x="660" y="170" width="100" height="3360" as="geometry" />
        </mxCell>
        <mxCell id="XzQIP6qpDgnseQ4LIaWj-2" value="" style="html=1;points=[];perimeter=orthogonalPerimeter;rounded=0;shadow=0;comic=0;labelBackgroundColor=none;strokeWidth=1;fontFamily=Verdana;fontSize=12;align=center;" parent="1" vertex="1">
          <mxGeometry x="705" y="270" width="10" height="1100" as="geometry" />
        </mxCell>
        <mxCell id="XzQIP6qpDgnseQ4LIaWj-3" value="risk-bifrost" style="shape=umlLifeline;perimeter=lifelinePerimeter;whiteSpace=wrap;html=1;container=0;collapsible=0;recursiveResize=0;outlineConnect=0;rounded=1;shadow=0;comic=0;labelBackgroundColor=none;strokeWidth=1;fontFamily=Verdana;fontSize=12;align=center;" parent="1" vertex="1">
          <mxGeometry x="1220" y="170" width="100" height="3360" as="geometry" />
        </mxCell>
        <mxCell id="XzQIP6qpDgnseQ4LIaWj-6" value="pay-customercore" style="shape=umlLifeline;perimeter=lifelinePerimeter;whiteSpace=wrap;html=1;container=1;collapsible=0;recursiveResize=0;outlineConnect=0;rounded=1;shadow=0;comic=0;labelBackgroundColor=none;strokeWidth=1;fontFamily=Verdana;fontSize=12;align=center;" parent="1" vertex="1">
          <mxGeometry x="1080" y="170" width="100" height="3360" as="geometry" />
        </mxCell>
        <mxCell id="XzQIP6qpDgnseQ4LIaWj-10" value="&lt;font style=&quot;font-size: 12px&quot;&gt;pay-ucashier&lt;/font&gt;" style="shape=umlLifeline;perimeter=lifelinePerimeter;whiteSpace=wrap;html=1;container=1;collapsible=0;recursiveResize=0;outlineConnect=0;rounded=1;shadow=0;comic=0;labelBackgroundColor=none;strokeWidth=1;fontFamily=Verdana;fontSize=12;align=center;" parent="1" vertex="1">
          <mxGeometry x="520" y="170" width="100" height="3360" as="geometry" />
        </mxCell>
        <mxCell id="XzQIP6qpDgnseQ4LIaWj-11" value="" style="html=1;points=[];perimeter=orthogonalPerimeter;rounded=0;shadow=0;comic=0;labelBackgroundColor=none;strokeWidth=1;fontFamily=Verdana;fontSize=12;align=center;" parent="XzQIP6qpDgnseQ4LIaWj-10" vertex="1">
          <mxGeometry x="45" y="100" width="10" height="440" as="geometry" />
        </mxCell>
        <mxCell id="XzQIP6qpDgnseQ4LIaWj-12" value="Note" style="shape=note;whiteSpace=wrap;html=1;size=14;verticalAlign=top;align=left;spacingTop=-6;rounded=0;shadow=0;comic=0;labelBackgroundColor=none;strokeWidth=1;fontFamily=Verdana;fontSize=12" parent="1" vertex="1">
          <mxGeometry x="520" y="120" width="100" height="35" as="geometry" />
        </mxCell>
        <mxCell id="XzQIP6qpDgnseQ4LIaWj-13" value="Note" style="shape=note;whiteSpace=wrap;html=1;size=14;verticalAlign=top;align=left;spacingTop=-6;rounded=0;shadow=0;comic=0;labelBackgroundColor=none;strokeWidth=1;fontFamily=Verdana;fontSize=12" parent="1" vertex="1">
          <mxGeometry x="660" y="120" width="100" height="35" as="geometry" />
        </mxCell>
        <mxCell id="XzQIP6qpDgnseQ4LIaWj-14" value="Note" style="shape=note;whiteSpace=wrap;html=1;size=14;verticalAlign=top;align=left;spacingTop=-6;rounded=0;shadow=0;comic=0;labelBackgroundColor=none;strokeWidth=1;fontFamily=Verdana;fontSize=12" parent="1" vertex="1">
          <mxGeometry x="800" y="120" width="100" height="35" as="geometry" />
        </mxCell>
        <mxCell id="XzQIP6qpDgnseQ4LIaWj-15" value="Note" style="shape=note;whiteSpace=wrap;html=1;size=14;verticalAlign=top;align=left;spacingTop=-6;rounded=0;shadow=0;comic=0;labelBackgroundColor=none;strokeWidth=1;fontFamily=Verdana;fontSize=12" parent="1" vertex="1">
          <mxGeometry x="940" y="120" width="100" height="35" as="geometry" />
        </mxCell>
        <mxCell id="XzQIP6qpDgnseQ4LIaWj-16" value="Note" style="shape=note;whiteSpace=wrap;html=1;size=14;verticalAlign=top;align=left;spacingTop=-6;rounded=0;shadow=0;comic=0;labelBackgroundColor=none;strokeWidth=1;fontFamily=Verdana;fontSize=12" parent="1" vertex="1">
          <mxGeometry x="1080" y="120" width="100" height="35" as="geometry" />
        </mxCell>
        <mxCell id="XzQIP6qpDgnseQ4LIaWj-17" value="Note" style="shape=note;whiteSpace=wrap;html=1;size=14;verticalAlign=top;align=left;spacingTop=-6;rounded=0;shadow=0;comic=0;labelBackgroundColor=none;strokeWidth=1;fontFamily=Verdana;fontSize=12" parent="1" vertex="1">
          <mxGeometry x="1220" y="120" width="100" height="35" as="geometry" />
        </mxCell>
        <mxCell id="XzQIP6qpDgnseQ4LIaWj-18" value="" style="html=1;points=[];perimeter=orthogonalPerimeter;rounded=0;shadow=0;comic=0;labelBackgroundColor=none;strokeWidth=1;fontFamily=Verdana;fontSize=12;align=center;" parent="1" vertex="1">
          <mxGeometry x="1265" y="410" width="10" height="40" as="geometry" />
        </mxCell>
        <mxCell id="XzQIP6qpDgnseQ4LIaWj-19" value="查询商户风险等级" style="html=1;verticalAlign=bottom;endArrow=block;labelBackgroundColor=none;fontFamily=Verdana;fontSize=12;edgeStyle=elbowEdgeStyle;elbow=vertical;entryX=0.1;entryY=0.025;entryDx=0;entryDy=0;entryPerimeter=0;exitX=1.1;exitY=0.182;exitDx=0;exitDy=0;exitPerimeter=0;" parent="1" target="XzQIP6qpDgnseQ4LIaWj-18" edge="1">
          <mxGeometry relative="1" as="geometry">
            <mxPoint x="716" y="410.0799999999999" as="sourcePoint" />
            <mxPoint x="980" y="490" as="targetPoint" />
          </mxGeometry>
        </mxCell>
        <mxCell id="XzQIP6qpDgnseQ4LIaWj-20" value="多次支付" style="html=1;verticalAlign=bottom;endArrow=block;entryX=0;entryY=0;entryDx=0;entryDy=0;entryPerimeter=0;" parent="1" target="XzQIP6qpDgnseQ4LIaWj-2" edge="1">
          <mxGeometry width="80" relative="1" as="geometry">
            <mxPoint x="570" y="270" as="sourcePoint" />
            <mxPoint x="700" y="270" as="targetPoint" />
          </mxGeometry>
        </mxCell>
        <mxCell id="XzQIP6qpDgnseQ4LIaWj-21" value="" style="html=1;points=[];perimeter=orthogonalPerimeter;rounded=0;shadow=0;comic=0;labelBackgroundColor=none;strokeWidth=1;fontFamily=Verdana;fontSize=12;align=center;" parent="1" vertex="1">
          <mxGeometry x="710" y="299" width="10" height="40" as="geometry" />
        </mxCell>
        <mxCell id="XzQIP6qpDgnseQ4LIaWj-22" value="" style="html=1;verticalAlign=bottom;endArrow=block;labelBackgroundColor=none;fontFamily=Verdana;fontSize=12;elbow=vertical;edgeStyle=orthogonalEdgeStyle;curved=1;entryX=1;entryY=0.286;entryPerimeter=0;exitX=1.038;exitY=0.345;exitPerimeter=0;" parent="1" edge="1">
          <mxGeometry relative="1" as="geometry">
            <mxPoint x="715.3333333333335" y="280" as="sourcePoint" />
            <mxPoint x="720.3333333333335" y="318.3333333333335" as="targetPoint" />
            <Array as="points">
              <mxPoint x="770" y="280" />
              <mxPoint x="770" y="318" />
            </Array>
          </mxGeometry>
        </mxCell>
        <mxCell id="XzQIP6qpDgnseQ4LIaWj-23" value="参数校验" style="edgeLabel;html=1;align=center;verticalAlign=middle;resizable=0;points=[];" parent="XzQIP6qpDgnseQ4LIaWj-22" vertex="1" connectable="0">
          <mxGeometry x="0.033" y="-3" relative="1" as="geometry">
            <mxPoint as="offset" />
          </mxGeometry>
        </mxCell>
        <mxCell id="XzQIP6qpDgnseQ4LIaWj-24" value="return" style="html=1;verticalAlign=bottom;endArrow=open;dashed=1;endSize=6;entryX=1.1;entryY=0.25;entryDx=0;entryDy=0;entryPerimeter=0;" parent="1" edge="1">
          <mxGeometry relative="1" as="geometry">
            <mxPoint x="1265" y="440" as="sourcePoint" />
            <mxPoint x="716" y="440" as="targetPoint" />
          </mxGeometry>
        </mxCell>
        <mxCell id="XzQIP6qpDgnseQ4LIaWj-25" value="" style="html=1;points=[];perimeter=orthogonalPerimeter;rounded=0;shadow=0;comic=0;labelBackgroundColor=none;strokeWidth=1;fontFamily=Verdana;fontSize=12;align=center;" parent="1" vertex="1">
          <mxGeometry x="710" y="469" width="10" height="40" as="geometry" />
        </mxCell>
        <mxCell id="XzQIP6qpDgnseQ4LIaWj-26" value="" style="html=1;verticalAlign=bottom;endArrow=block;labelBackgroundColor=none;fontFamily=Verdana;fontSize=12;elbow=vertical;edgeStyle=orthogonalEdgeStyle;curved=1;entryX=1;entryY=0.286;entryPerimeter=0;exitX=1.038;exitY=0.345;exitPerimeter=0;" parent="1" edge="1">
          <mxGeometry relative="1" as="geometry">
            <mxPoint x="715.3333333333335" y="450" as="sourcePoint" />
            <mxPoint x="720.3333333333335" y="488.3333333333335" as="targetPoint" />
            <Array as="points">
              <mxPoint x="770" y="450" />
              <mxPoint x="770" y="488" />
            </Array>
          </mxGeometry>
        </mxCell>
        <mxCell id="XzQIP6qpDgnseQ4LIaWj-27" value="放入outBizInfo&lt;br&gt;透传给渠道层" style="edgeLabel;html=1;align=center;verticalAlign=middle;resizable=0;points=[];" parent="XzQIP6qpDgnseQ4LIaWj-26" vertex="1" connectable="0">
          <mxGeometry x="0.0049" relative="1" as="geometry">
            <mxPoint as="offset" />
          </mxGeometry>
        </mxCell>
        <mxCell id="XzQIP6qpDgnseQ4LIaWj-28" value="" style="endArrow=none;html=1;edgeStyle=orthogonalEdgeStyle;dashed=1;" parent="1" edge="1">
          <mxGeometry relative="1" as="geometry">
            <mxPoint x="591" y="520" as="sourcePoint" />
            <mxPoint x="1320" y="520" as="targetPoint" />
          </mxGeometry>
        </mxCell>
        <mxCell id="XzQIP6qpDgnseQ4LIaWj-29" value="[else]" style="text;html=1;align=center;verticalAlign=middle;resizable=0;points=[];autosize=1;strokeColor=none;" parent="1" vertex="1">
          <mxGeometry x="594" y="520" width="40" height="20" as="geometry" />
        </mxCell>
        <mxCell id="XzQIP6qpDgnseQ4LIaWj-30" value="" style="html=1;points=[];perimeter=orthogonalPerimeter;rounded=0;shadow=0;comic=0;labelBackgroundColor=none;strokeWidth=1;fontFamily=Verdana;fontSize=12;align=center;" parent="1" vertex="1">
          <mxGeometry x="710" y="639" width="10" height="40" as="geometry" />
        </mxCell>
        <mxCell id="XzQIP6qpDgnseQ4LIaWj-31" value="" style="html=1;verticalAlign=bottom;endArrow=block;labelBackgroundColor=none;fontFamily=Verdana;fontSize=12;elbow=vertical;edgeStyle=orthogonalEdgeStyle;curved=1;entryX=1;entryY=0.286;entryPerimeter=0;exitX=1.038;exitY=0.345;exitPerimeter=0;" parent="1" edge="1">
          <mxGeometry relative="1" as="geometry">
            <mxPoint x="715.3333333333335" y="620" as="sourcePoint" />
            <mxPoint x="720.3333333333335" y="658.3333333333335" as="targetPoint" />
            <Array as="points">
              <mxPoint x="770" y="620" />
              <mxPoint x="770" y="658" />
            </Array>
          </mxGeometry>
        </mxCell>
        <mxCell id="XzQIP6qpDgnseQ4LIaWj-32" value="营销支付校验" style="edgeLabel;html=1;align=center;verticalAlign=middle;resizable=0;points=[];" parent="XzQIP6qpDgnseQ4LIaWj-31" vertex="1" connectable="0">
          <mxGeometry x="0.075" relative="1" as="geometry">
            <mxPoint as="offset" />
          </mxGeometry>
        </mxCell>
        <mxCell id="XzQIP6qpDgnseQ4LIaWj-33" value="" style="html=1;points=[];perimeter=orthogonalPerimeter;rounded=0;shadow=0;comic=0;labelBackgroundColor=none;strokeWidth=1;fontFamily=Verdana;fontSize=12;align=center;" parent="1" vertex="1">
          <mxGeometry x="710" y="709" width="10" height="40" as="geometry" />
        </mxCell>
        <mxCell id="XzQIP6qpDgnseQ4LIaWj-34" value="" style="html=1;verticalAlign=bottom;endArrow=block;labelBackgroundColor=none;fontFamily=Verdana;fontSize=12;elbow=vertical;edgeStyle=orthogonalEdgeStyle;curved=1;entryX=1;entryY=0.286;entryPerimeter=0;exitX=1.038;exitY=0.345;exitPerimeter=0;" parent="1" edge="1">
          <mxGeometry relative="1" as="geometry">
            <mxPoint x="715.3333333333335" y="690" as="sourcePoint" />
            <mxPoint x="720.3333333333335" y="728.3333333333335" as="targetPoint" />
            <Array as="points">
              <mxPoint x="770" y="690" />
              <mxPoint x="770" y="728" />
            </Array>
          </mxGeometry>
        </mxCell>
        <mxCell id="XzQIP6qpDgnseQ4LIaWj-35" value="校验收单是否能支付" style="edgeLabel;html=1;align=center;verticalAlign=middle;resizable=0;points=[];" parent="XzQIP6qpDgnseQ4LIaWj-34" vertex="1" connectable="0">
          <mxGeometry x="0.075" relative="1" as="geometry">
            <mxPoint as="offset" />
          </mxGeometry>
        </mxCell>
        <mxCell id="XzQIP6qpDgnseQ4LIaWj-36" value="" style="html=1;points=[];perimeter=orthogonalPerimeter;rounded=0;shadow=0;comic=0;labelBackgroundColor=none;strokeWidth=1;fontFamily=Verdana;fontSize=12;align=center;" parent="1" vertex="1">
          <mxGeometry x="710" y="780" width="10" height="40" as="geometry" />
        </mxCell>
        <mxCell id="XzQIP6qpDgnseQ4LIaWj-37" value="" style="html=1;verticalAlign=bottom;endArrow=block;labelBackgroundColor=none;fontFamily=Verdana;fontSize=12;elbow=vertical;edgeStyle=orthogonalEdgeStyle;curved=1;entryX=1;entryY=0.286;entryPerimeter=0;exitX=1.038;exitY=0.345;exitPerimeter=0;" parent="1" edge="1">
          <mxGeometry relative="1" as="geometry">
            <mxPoint x="715.3333333333335" y="761" as="sourcePoint" />
            <mxPoint x="720.3333333333335" y="799.3333333333335" as="targetPoint" />
            <Array as="points">
              <mxPoint x="770" y="761" />
              <mxPoint x="770" y="799" />
            </Array>
          </mxGeometry>
        </mxCell>
        <mxCell id="XzQIP6qpDgnseQ4LIaWj-38" value="爱逛不支持合单支付" style="edgeLabel;html=1;align=center;verticalAlign=middle;resizable=0;points=[];" parent="XzQIP6qpDgnseQ4LIaWj-37" vertex="1" connectable="0">
          <mxGeometry x="0.075" relative="1" as="geometry">
            <mxPoint as="offset" />
          </mxGeometry>
        </mxCell>
        <mxCell id="XzQIP6qpDgnseQ4LIaWj-39" value="" style="html=1;points=[];perimeter=orthogonalPerimeter;rounded=0;shadow=0;comic=0;labelBackgroundColor=none;strokeWidth=1;fontFamily=Verdana;fontSize=12;align=center;" parent="1" vertex="1">
          <mxGeometry x="710" y="859" width="10" height="40" as="geometry" />
        </mxCell>
        <mxCell id="XzQIP6qpDgnseQ4LIaWj-40" value="" style="html=1;verticalAlign=bottom;endArrow=block;labelBackgroundColor=none;fontFamily=Verdana;fontSize=12;elbow=vertical;edgeStyle=orthogonalEdgeStyle;curved=1;entryX=1;entryY=0.286;entryPerimeter=0;exitX=1.038;exitY=0.345;exitPerimeter=0;" parent="1" edge="1">
          <mxGeometry relative="1" as="geometry">
            <mxPoint x="715.3333333333335" y="840" as="sourcePoint" />
            <mxPoint x="720.3333333333335" y="878.3333333333335" as="targetPoint" />
            <Array as="points">
              <mxPoint x="770" y="840" />
              <mxPoint x="770" y="878" />
            </Array>
          </mxGeometry>
        </mxCell>
        <mxCell id="XzQIP6qpDgnseQ4LIaWj-41" value="校验商户是否完成开户" style="edgeLabel;html=1;align=center;verticalAlign=middle;resizable=0;points=[];" parent="XzQIP6qpDgnseQ4LIaWj-40" vertex="1" connectable="0">
          <mxGeometry x="0.075" relative="1" as="geometry">
            <mxPoint as="offset" />
          </mxGeometry>
        </mxCell>
        <mxCell id="XzQIP6qpDgnseQ4LIaWj-42" value="" style="html=1;points=[];perimeter=orthogonalPerimeter;rounded=0;shadow=0;comic=0;labelBackgroundColor=none;strokeWidth=1;fontFamily=Verdana;fontSize=12;align=center;" parent="1" vertex="1">
          <mxGeometry x="710" y="929" width="10" height="40" as="geometry" />
        </mxCell>
        <mxCell id="XzQIP6qpDgnseQ4LIaWj-43" value="" style="html=1;verticalAlign=bottom;endArrow=block;labelBackgroundColor=none;fontFamily=Verdana;fontSize=12;elbow=vertical;edgeStyle=orthogonalEdgeStyle;curved=1;entryX=1;entryY=0.286;entryPerimeter=0;exitX=1.038;exitY=0.345;exitPerimeter=0;" parent="1" edge="1">
          <mxGeometry relative="1" as="geometry">
            <mxPoint x="715.3333333333335" y="910" as="sourcePoint" />
            <mxPoint x="720.3333333333335" y="948.3333333333335" as="targetPoint" />
            <Array as="points">
              <mxPoint x="770" y="910" />
              <mxPoint x="770" y="948" />
            </Array>
          </mxGeometry>
        </mxCell>
        <mxCell id="XzQIP6qpDgnseQ4LIaWj-44" value="保存支付明细" style="edgeLabel;html=1;align=center;verticalAlign=middle;resizable=0;points=[];" parent="XzQIP6qpDgnseQ4LIaWj-43" vertex="1" connectable="0">
          <mxGeometry x="0.075" relative="1" as="geometry">
            <mxPoint as="offset" />
          </mxGeometry>
        </mxCell>
        <mxCell id="XzQIP6qpDgnseQ4LIaWj-45" value="" style="html=1;points=[];perimeter=orthogonalPerimeter;rounded=0;shadow=0;comic=0;labelBackgroundColor=none;strokeWidth=1;fontFamily=Verdana;fontSize=12;align=center;" parent="1" vertex="1">
          <mxGeometry x="710" y="1000" width="10" height="40" as="geometry" />
        </mxCell>
        <mxCell id="XzQIP6qpDgnseQ4LIaWj-46" value="" style="html=1;verticalAlign=bottom;endArrow=block;labelBackgroundColor=none;fontFamily=Verdana;fontSize=12;elbow=vertical;edgeStyle=orthogonalEdgeStyle;curved=1;entryX=1;entryY=0.286;entryPerimeter=0;exitX=1.038;exitY=0.345;exitPerimeter=0;" parent="1" edge="1">
          <mxGeometry relative="1" as="geometry">
            <mxPoint x="715.3333333333335" y="981" as="sourcePoint" />
            <mxPoint x="720.3333333333335" y="1019.3333333333335" as="targetPoint" />
            <Array as="points">
              <mxPoint x="770" y="981" />
              <mxPoint x="770" y="1019" />
            </Array>
          </mxGeometry>
        </mxCell>
        <mxCell id="XzQIP6qpDgnseQ4LIaWj-47" value="发创建支付单消息" style="edgeLabel;html=1;align=center;verticalAlign=middle;resizable=0;points=[];" parent="XzQIP6qpDgnseQ4LIaWj-46" vertex="1" connectable="0">
          <mxGeometry x="0.075" relative="1" as="geometry">
            <mxPoint as="offset" />
          </mxGeometry>
        </mxCell>
        <mxCell id="XzQIP6qpDgnseQ4LIaWj-48" value="" style="html=1;points=[];perimeter=orthogonalPerimeter;rounded=0;shadow=0;comic=0;labelBackgroundColor=none;strokeWidth=1;fontFamily=Verdana;fontSize=12;align=center;" parent="1" vertex="1">
          <mxGeometry x="710" y="1079" width="10" height="40" as="geometry" />
        </mxCell>
        <mxCell id="XzQIP6qpDgnseQ4LIaWj-49" value="" style="html=1;verticalAlign=bottom;endArrow=block;labelBackgroundColor=none;fontFamily=Verdana;fontSize=12;elbow=vertical;edgeStyle=orthogonalEdgeStyle;curved=1;entryX=1;entryY=0.286;entryPerimeter=0;exitX=1.038;exitY=0.345;exitPerimeter=0;" parent="1" edge="1">
          <mxGeometry relative="1" as="geometry">
            <mxPoint x="715.3333333333335" y="1060" as="sourcePoint" />
            <mxPoint x="720.3333333333335" y="1098.3333333333335" as="targetPoint" />
            <Array as="points">
              <mxPoint x="770" y="1060" />
              <mxPoint x="770" y="1098" />
            </Array>
          </mxGeometry>
        </mxCell>
        <mxCell id="XzQIP6qpDgnseQ4LIaWj-50" value="风控检查" style="edgeLabel;html=1;align=center;verticalAlign=middle;resizable=0;points=[];" parent="XzQIP6qpDgnseQ4LIaWj-49" vertex="1" connectable="0">
          <mxGeometry x="0.075" relative="1" as="geometry">
            <mxPoint as="offset" />
          </mxGeometry>
        </mxCell>
        <mxCell id="XzQIP6qpDgnseQ4LIaWj-51" value="" style="html=1;points=[];perimeter=orthogonalPerimeter;rounded=0;shadow=0;comic=0;labelBackgroundColor=none;strokeWidth=1;fontFamily=Verdana;fontSize=12;align=center;" parent="1" vertex="1">
          <mxGeometry x="710" y="1150" width="10" height="40" as="geometry" />
        </mxCell>
        <mxCell id="XzQIP6qpDgnseQ4LIaWj-52" value="" style="html=1;verticalAlign=bottom;endArrow=block;labelBackgroundColor=none;fontFamily=Verdana;fontSize=12;elbow=vertical;edgeStyle=orthogonalEdgeStyle;curved=1;entryX=1;entryY=0.286;entryPerimeter=0;exitX=1.038;exitY=0.345;exitPerimeter=0;" parent="1" edge="1">
          <mxGeometry relative="1" as="geometry">
            <mxPoint x="715.3333333333335" y="1131" as="sourcePoint" />
            <mxPoint x="720.3333333333335" y="1169.3333333333335" as="targetPoint" />
            <Array as="points">
              <mxPoint x="770" y="1131" />
              <mxPoint x="770" y="1169" />
            </Array>
          </mxGeometry>
        </mxCell>
        <mxCell id="XzQIP6qpDgnseQ4LIaWj-53" value="执行支付指令" style="edgeLabel;html=1;align=center;verticalAlign=middle;resizable=0;points=[];" parent="XzQIP6qpDgnseQ4LIaWj-52" vertex="1" connectable="0">
          <mxGeometry x="0.075" relative="1" as="geometry">
            <mxPoint as="offset" />
          </mxGeometry>
        </mxCell>
        <mxCell id="XzQIP6qpDgnseQ4LIaWj-54" value="" style="html=1;points=[];perimeter=orthogonalPerimeter;rounded=0;shadow=0;comic=0;labelBackgroundColor=none;strokeWidth=1;fontFamily=Verdana;fontSize=12;align=center;" parent="1" vertex="1">
          <mxGeometry x="710" y="1289" width="10" height="40" as="geometry" />
        </mxCell>
        <mxCell id="XzQIP6qpDgnseQ4LIaWj-55" value="" style="html=1;verticalAlign=bottom;endArrow=block;labelBackgroundColor=none;fontFamily=Verdana;fontSize=12;elbow=vertical;edgeStyle=orthogonalEdgeStyle;curved=1;entryX=1;entryY=0.286;entryPerimeter=0;exitX=1.038;exitY=0.345;exitPerimeter=0;" parent="1" edge="1">
          <mxGeometry relative="1" as="geometry">
            <mxPoint x="715.3333333333335" y="1270" as="sourcePoint" />
            <mxPoint x="720.3333333333335" y="1308.3333333333335" as="targetPoint" />
            <Array as="points">
              <mxPoint x="770" y="1270" />
              <mxPoint x="770" y="1308" />
            </Array>
          </mxGeometry>
        </mxCell>
        <mxCell id="XzQIP6qpDgnseQ4LIaWj-56" value="支付后处理（更新收单状态）" style="edgeLabel;html=1;align=center;verticalAlign=middle;resizable=0;points=[];" parent="XzQIP6qpDgnseQ4LIaWj-55" vertex="1" connectable="0">
          <mxGeometry x="0.075" relative="1" as="geometry">
            <mxPoint as="offset" />
          </mxGeometry>
        </mxCell>
        <mxCell id="XzQIP6qpDgnseQ4LIaWj-57" value="" style="html=1;points=[];perimeter=orthogonalPerimeter;rounded=0;shadow=0;comic=0;labelBackgroundColor=none;strokeColor=#000000;strokeWidth=1;fillColor=#FFFFFF;fontFamily=Verdana;fontSize=12;fontColor=#000000;align=center;" parent="1" vertex="1">
          <mxGeometry x="845" y="1210" width="10" height="2320" as="geometry" />
        </mxCell>
        <mxCell id="XzQIP6qpDgnseQ4LIaWj-58" value="支付" style="html=1;verticalAlign=bottom;endArrow=block;labelBackgroundColor=none;fontFamily=Verdana;fontSize=12;edgeStyle=elbowEdgeStyle;elbow=vertical;exitX=1;exitY=0.854;exitDx=0;exitDy=0;exitPerimeter=0;" parent="1" source="XzQIP6qpDgnseQ4LIaWj-2" edge="1">
          <mxGeometry relative="1" as="geometry">
            <mxPoint x="722" y="1210" as="sourcePoint" />
            <mxPoint x="847" y="1211" as="targetPoint" />
            <Array as="points">
              <mxPoint x="720" y="1211" />
            </Array>
          </mxGeometry>
        </mxCell>
        <mxCell id="XzQIP6qpDgnseQ4LIaWj-59" value="" style="html=1;points=[];perimeter=orthogonalPerimeter;rounded=0;shadow=0;comic=0;labelBackgroundColor=none;strokeWidth=1;fontFamily=Verdana;fontSize=12;align=center;" parent="1" vertex="1">
          <mxGeometry x="850" y="1249" width="10" height="40" as="geometry" />
        </mxCell>
        <mxCell id="XzQIP6qpDgnseQ4LIaWj-60" value="" style="html=1;verticalAlign=bottom;endArrow=block;labelBackgroundColor=none;fontFamily=Verdana;fontSize=12;elbow=vertical;edgeStyle=orthogonalEdgeStyle;curved=1;entryX=1;entryY=0.286;entryPerimeter=0;exitX=1.038;exitY=0.345;exitPerimeter=0;" parent="1" edge="1">
          <mxGeometry relative="1" as="geometry">
            <mxPoint x="855.3333333333335" y="1230" as="sourcePoint" />
            <mxPoint x="860.3333333333335" y="1268.3333333333335" as="targetPoint" />
            <Array as="points">
              <mxPoint x="910" y="1230" />
              <mxPoint x="910" y="1268" />
            </Array>
          </mxGeometry>
        </mxCell>
        <mxCell id="XzQIP6qpDgnseQ4LIaWj-61" value="判断是否走扩展点支付" style="edgeLabel;html=1;align=center;verticalAlign=middle;resizable=0;points=[];" parent="XzQIP6qpDgnseQ4LIaWj-60" vertex="1" connectable="0">
          <mxGeometry x="0.075" relative="1" as="geometry">
            <mxPoint as="offset" />
          </mxGeometry>
        </mxCell>
        <mxCell id="XzQIP6qpDgnseQ4LIaWj-63" value="return" style="html=1;verticalAlign=bottom;endArrow=open;dashed=1;endSize=6;labelBackgroundColor=none;fontFamily=Verdana;fontSize=12;edgeStyle=elbowEdgeStyle;elbow=vertical;exitX=0;exitY=0.037;exitDx=0;exitDy=0;exitPerimeter=0;" parent="1" source="XzQIP6qpDgnseQ4LIaWj-57" edge="1">
          <mxGeometry relative="1" as="geometry">
            <mxPoint x="714" y="1240" as="targetPoint" />
            <Array as="points">
              <mxPoint x="783.5" y="1240" />
              <mxPoint x="813.5" y="1240" />
            </Array>
            <mxPoint x="838.5" y="1240" as="sourcePoint" />
          </mxGeometry>
        </mxCell>
        <mxCell id="XzQIP6qpDgnseQ4LIaWj-131" value="" style="html=1;points=[];perimeter=orthogonalPerimeter;rounded=0;shadow=0;comic=0;labelBackgroundColor=none;strokeWidth=1;fontFamily=Verdana;fontSize=12;align=center;" parent="1" vertex="1">
          <mxGeometry x="1265" y="2953" width="10" height="40" as="geometry" />
        </mxCell>
        <mxCell id="XzQIP6qpDgnseQ4LIaWj-132" value="交易流水号申请正向" style="html=1;verticalAlign=bottom;endArrow=block;labelBackgroundColor=none;fontFamily=Verdana;fontSize=12;edgeStyle=elbowEdgeStyle;elbow=vertical;exitX=1;exitY=0.74;exitDx=0;exitDy=0;exitPerimeter=0;" parent="1" edge="1">
          <mxGeometry relative="1" as="geometry">
            <mxPoint x="995" y="2955.2000000000003" as="sourcePoint" />
            <mxPoint x="1265" y="2953" as="targetPoint" />
            <Array as="points">
              <mxPoint x="1005" y="2952.6" />
            </Array>
          </mxGeometry>
        </mxCell>
        <mxCell id="XzQIP6qpDgnseQ4LIaWj-133" value="return" style="html=1;verticalAlign=bottom;endArrow=open;dashed=1;endSize=6;labelBackgroundColor=none;fontFamily=Verdana;fontSize=12;edgeStyle=elbowEdgeStyle;elbow=vertical;exitX=0;exitY=0.7;exitDx=0;exitDy=0;exitPerimeter=0;" parent="1" source="XzQIP6qpDgnseQ4LIaWj-131" edge="1">
          <mxGeometry relative="1" as="geometry">
            <mxPoint x="994" y="2980" as="targetPoint" />
            <Array as="points">
              <mxPoint x="1204" y="2980" />
              <mxPoint x="1234" y="2980" />
            </Array>
            <mxPoint x="1259" y="2980" as="sourcePoint" />
          </mxGeometry>
        </mxCell>
        <mxCell id="XzQIP6qpDgnseQ4LIaWj-143" value="" style="html=1;points=[];perimeter=orthogonalPerimeter;rounded=0;shadow=0;comic=0;labelBackgroundColor=none;strokeWidth=1;fontFamily=Verdana;fontSize=12;align=center;" parent="1" vertex="1">
          <mxGeometry x="1266" y="3230.4" width="10" height="40" as="geometry" />
        </mxCell>
        <mxCell id="XzQIP6qpDgnseQ4LIaWj-144" value="协议支付申请正向" style="html=1;verticalAlign=bottom;endArrow=block;labelBackgroundColor=none;fontFamily=Verdana;fontSize=12;edgeStyle=elbowEdgeStyle;elbow=vertical;" parent="1" edge="1">
          <mxGeometry relative="1" as="geometry">
            <mxPoint x="996" y="3230" as="sourcePoint" />
            <mxPoint x="1266" y="3230.3999999999996" as="targetPoint" />
            <Array as="points">
              <mxPoint x="1006" y="3230" />
            </Array>
          </mxGeometry>
        </mxCell>
        <mxCell id="XzQIP6qpDgnseQ4LIaWj-145" value="return" style="html=1;verticalAlign=bottom;endArrow=open;dashed=1;endSize=6;labelBackgroundColor=none;fontFamily=Verdana;fontSize=12;edgeStyle=elbowEdgeStyle;elbow=vertical;exitX=0;exitY=0.7;exitDx=0;exitDy=0;exitPerimeter=0;" parent="1" source="XzQIP6qpDgnseQ4LIaWj-143" edge="1">
          <mxGeometry relative="1" as="geometry">
            <mxPoint x="995" y="3257.3999999999996" as="targetPoint" />
            <Array as="points">
              <mxPoint x="1205" y="3257.4" />
              <mxPoint x="1235" y="3257.4" />
            </Array>
            <mxPoint x="1260" y="3257.4" as="sourcePoint" />
          </mxGeometry>
        </mxCell>
        <mxCell id="XzQIP6qpDgnseQ4LIaWj-146" value="" style="edgeStyle=orthogonalEdgeStyle;rounded=0;orthogonalLoop=1;jettySize=auto;html=1;" parent="1" source="XzQIP6qpDgnseQ4LIaWj-147" edge="1">
          <mxGeometry relative="1" as="geometry">
            <mxPoint x="570" y="240" as="targetPoint" />
            <Array as="points">
              <mxPoint x="540" y="240" />
              <mxPoint x="540" y="240" />
            </Array>
          </mxGeometry>
        </mxCell>
        <mxCell id="XzQIP6qpDgnseQ4LIaWj-147" value="Actor" style="shape=umlActor;verticalLabelPosition=bottom;verticalAlign=top;html=1;" parent="1" vertex="1">
          <mxGeometry x="400" y="210" width="30" height="60" as="geometry" />
        </mxCell>
        <mxCell id="XzQIP6qpDgnseQ4LIaWj-148" value="" style="html=1;points=[];perimeter=orthogonalPerimeter;rounded=0;shadow=0;comic=0;labelBackgroundColor=none;strokeWidth=1;fontFamily=Verdana;fontSize=12;align=center;" parent="1" vertex="1">
          <mxGeometry x="850" y="1330" width="10" height="40" as="geometry" />
        </mxCell>
        <mxCell id="XzQIP6qpDgnseQ4LIaWj-149" value="" style="html=1;verticalAlign=bottom;endArrow=block;labelBackgroundColor=none;fontFamily=Verdana;fontSize=12;elbow=vertical;edgeStyle=orthogonalEdgeStyle;curved=1;entryX=1;entryY=0.286;entryPerimeter=0;exitX=1.038;exitY=0.345;exitPerimeter=0;" parent="1" edge="1">
          <mxGeometry relative="1" as="geometry">
            <mxPoint x="855.3333333333335" y="1311" as="sourcePoint" />
            <mxPoint x="860.3333333333335" y="1349.3333333333335" as="targetPoint" />
            <Array as="points">
              <mxPoint x="910" y="1311" />
              <mxPoint x="910" y="1349" />
            </Array>
          </mxGeometry>
        </mxCell>
        <mxCell id="XzQIP6qpDgnseQ4LIaWj-150" value="设置支付环境&lt;br&gt;到线程变量" style="edgeLabel;html=1;align=center;verticalAlign=middle;resizable=0;points=[];" parent="XzQIP6qpDgnseQ4LIaWj-149" vertex="1" connectable="0">
          <mxGeometry x="0.075" relative="1" as="geometry">
            <mxPoint as="offset" />
          </mxGeometry>
        </mxCell>
        <mxCell id="XzQIP6qpDgnseQ4LIaWj-151" value="" style="html=1;points=[];perimeter=orthogonalPerimeter;rounded=0;shadow=0;comic=0;labelBackgroundColor=none;strokeWidth=1;fontFamily=Verdana;fontSize=12;align=center;" parent="1" vertex="1">
          <mxGeometry x="850" y="1407" width="10" height="40" as="geometry" />
        </mxCell>
        <mxCell id="XzQIP6qpDgnseQ4LIaWj-152" value="" style="html=1;verticalAlign=bottom;endArrow=block;labelBackgroundColor=none;fontFamily=Verdana;fontSize=12;elbow=vertical;edgeStyle=orthogonalEdgeStyle;curved=1;entryX=1;entryY=0.286;entryPerimeter=0;exitX=1.038;exitY=0.345;exitPerimeter=0;" parent="1" edge="1">
          <mxGeometry relative="1" as="geometry">
            <mxPoint x="855.3333333333335" y="1388" as="sourcePoint" />
            <mxPoint x="860.3333333333335" y="1426.3333333333335" as="targetPoint" />
            <Array as="points">
              <mxPoint x="910" y="1388" />
              <mxPoint x="910" y="1426" />
            </Array>
          </mxGeometry>
        </mxCell>
        <mxCell id="XzQIP6qpDgnseQ4LIaWj-153" value="设置qq小程序appid&lt;br&gt;和token到线程变量" style="edgeLabel;html=1;align=center;verticalAlign=middle;resizable=0;points=[];" parent="XzQIP6qpDgnseQ4LIaWj-152" vertex="1" connectable="0">
          <mxGeometry x="0.075" relative="1" as="geometry">
            <mxPoint as="offset" />
          </mxGeometry>
        </mxCell>
        <mxCell id="XzQIP6qpDgnseQ4LIaWj-154" value="" style="html=1;points=[];perimeter=orthogonalPerimeter;rounded=0;shadow=0;comic=0;labelBackgroundColor=none;strokeWidth=1;fontFamily=Verdana;fontSize=12;align=center;" parent="1" vertex="1">
          <mxGeometry x="850" y="1489" width="10" height="40" as="geometry" />
        </mxCell>
        <mxCell id="XzQIP6qpDgnseQ4LIaWj-155" value="" style="html=1;verticalAlign=bottom;endArrow=block;labelBackgroundColor=none;fontFamily=Verdana;fontSize=12;elbow=vertical;edgeStyle=orthogonalEdgeStyle;curved=1;entryX=1;entryY=0.286;entryPerimeter=0;exitX=1.038;exitY=0.345;exitPerimeter=0;" parent="1" edge="1">
          <mxGeometry relative="1" as="geometry">
            <mxPoint x="855.3333333333335" y="1470" as="sourcePoint" />
            <mxPoint x="860.3333333333335" y="1508.3333333333335" as="targetPoint" />
            <Array as="points">
              <mxPoint x="910" y="1470" />
              <mxPoint x="910" y="1508" />
            </Array>
          </mxGeometry>
        </mxCell>
        <mxCell id="XzQIP6qpDgnseQ4LIaWj-156" value="设置微信信用分单号&lt;br&gt;到线程变量" style="edgeLabel;html=1;align=center;verticalAlign=middle;resizable=0;points=[];" parent="XzQIP6qpDgnseQ4LIaWj-155" vertex="1" connectable="0">
          <mxGeometry x="0.075" relative="1" as="geometry">
            <mxPoint as="offset" />
          </mxGeometry>
        </mxCell>
        <mxCell id="XzQIP6qpDgnseQ4LIaWj-157" value="" style="html=1;points=[];perimeter=orthogonalPerimeter;rounded=0;shadow=0;comic=0;labelBackgroundColor=none;strokeWidth=1;fontFamily=Verdana;fontSize=12;align=center;" parent="1" vertex="1">
          <mxGeometry x="850" y="1569" width="10" height="40" as="geometry" />
        </mxCell>
        <mxCell id="XzQIP6qpDgnseQ4LIaWj-158" value="" style="html=1;verticalAlign=bottom;endArrow=block;labelBackgroundColor=none;fontFamily=Verdana;fontSize=12;elbow=vertical;edgeStyle=orthogonalEdgeStyle;curved=1;entryX=1;entryY=0.286;entryPerimeter=0;exitX=1.038;exitY=0.345;exitPerimeter=0;" parent="1" edge="1">
          <mxGeometry relative="1" as="geometry">
            <mxPoint x="855.3333333333335" y="1550" as="sourcePoint" />
            <mxPoint x="860.3333333333335" y="1588.3333333333335" as="targetPoint" />
            <Array as="points">
              <mxPoint x="910" y="1550" />
              <mxPoint x="910" y="1588" />
            </Array>
          </mxGeometry>
        </mxCell>
        <mxCell id="XzQIP6qpDgnseQ4LIaWj-159" value="根据支付请求&lt;br&gt;获取支付方式" style="edgeLabel;html=1;align=center;verticalAlign=middle;resizable=0;points=[];" parent="XzQIP6qpDgnseQ4LIaWj-158" vertex="1" connectable="0">
          <mxGeometry x="0.075" relative="1" as="geometry">
            <mxPoint as="offset" />
          </mxGeometry>
        </mxCell>
        <mxCell id="XzQIP6qpDgnseQ4LIaWj-160" value="" style="html=1;points=[];perimeter=orthogonalPerimeter;rounded=0;shadow=0;comic=0;labelBackgroundColor=none;strokeWidth=1;fontFamily=Verdana;fontSize=12;align=center;" parent="1" vertex="1">
          <mxGeometry x="850" y="1649" width="10" height="40" as="geometry" />
        </mxCell>
        <mxCell id="XzQIP6qpDgnseQ4LIaWj-161" value="" style="html=1;verticalAlign=bottom;endArrow=block;labelBackgroundColor=none;fontFamily=Verdana;fontSize=12;elbow=vertical;edgeStyle=orthogonalEdgeStyle;curved=1;entryX=1;entryY=0.286;entryPerimeter=0;exitX=1.038;exitY=0.345;exitPerimeter=0;" parent="1" edge="1">
          <mxGeometry relative="1" as="geometry">
            <mxPoint x="855.3333333333335" y="1630" as="sourcePoint" />
            <mxPoint x="860.3333333333335" y="1668.3333333333335" as="targetPoint" />
            <Array as="points">
              <mxPoint x="910" y="1630" />
              <mxPoint x="910" y="1668" />
            </Array>
          </mxGeometry>
        </mxCell>
        <mxCell id="XzQIP6qpDgnseQ4LIaWj-162" value="设置支付方式到&lt;br&gt;线程变量（后续上报天网）" style="edgeLabel;html=1;align=center;verticalAlign=middle;resizable=0;points=[];" parent="XzQIP6qpDgnseQ4LIaWj-161" vertex="1" connectable="0">
          <mxGeometry x="0.075" relative="1" as="geometry">
            <mxPoint as="offset" />
          </mxGeometry>
        </mxCell>
        <mxCell id="XzQIP6qpDgnseQ4LIaWj-163" value="" style="html=1;points=[];perimeter=orthogonalPerimeter;rounded=0;shadow=0;comic=0;labelBackgroundColor=none;strokeWidth=1;fontFamily=Verdana;fontSize=12;align=center;" parent="1" vertex="1">
          <mxGeometry x="850" y="1719" width="10" height="40" as="geometry" />
        </mxCell>
        <mxCell id="XzQIP6qpDgnseQ4LIaWj-164" value="" style="html=1;verticalAlign=bottom;endArrow=block;labelBackgroundColor=none;fontFamily=Verdana;fontSize=12;elbow=vertical;edgeStyle=orthogonalEdgeStyle;curved=1;entryX=1;entryY=0.286;entryPerimeter=0;exitX=1.038;exitY=0.345;exitPerimeter=0;" parent="1" edge="1">
          <mxGeometry relative="1" as="geometry">
            <mxPoint x="855.3333333333335" y="1700" as="sourcePoint" />
            <mxPoint x="860.3333333333335" y="1738.3333333333335" as="targetPoint" />
            <Array as="points">
              <mxPoint x="910" y="1700" />
              <mxPoint x="910" y="1738" />
            </Array>
          </mxGeometry>
        </mxCell>
        <mxCell id="XzQIP6qpDgnseQ4LIaWj-165" value="设置非自有支付&lt;br&gt;标识到线程变量" style="edgeLabel;html=1;align=center;verticalAlign=middle;resizable=0;points=[];" parent="XzQIP6qpDgnseQ4LIaWj-164" vertex="1" connectable="0">
          <mxGeometry x="0.075" relative="1" as="geometry">
            <mxPoint as="offset" />
          </mxGeometry>
        </mxCell>
        <mxCell id="CDEZrAH9GU6wmxjDfpgE-1" value="" style="html=1;points=[];perimeter=orthogonalPerimeter;rounded=0;shadow=0;comic=0;labelBackgroundColor=none;strokeWidth=1;fontFamily=Verdana;fontSize=12;align=center;" parent="1" vertex="1">
          <mxGeometry x="850" y="1849" width="10" height="40" as="geometry" />
        </mxCell>
        <mxCell id="CDEZrAH9GU6wmxjDfpgE-2" value="" style="html=1;verticalAlign=bottom;endArrow=block;labelBackgroundColor=none;fontFamily=Verdana;fontSize=12;elbow=vertical;edgeStyle=orthogonalEdgeStyle;curved=1;entryX=1.4;entryY=0.8;entryPerimeter=0;exitX=1.038;exitY=0.345;exitPerimeter=0;entryDx=0;entryDy=0;" parent="1" target="CDEZrAH9GU6wmxjDfpgE-1" edge="1">
          <mxGeometry relative="1" as="geometry">
            <mxPoint x="855.3333333333335" y="1820" as="sourcePoint" />
            <mxPoint x="860.3333333333335" y="1858.3333333333335" as="targetPoint" />
            <Array as="points">
              <mxPoint x="910" y="1820" />
              <mxPoint x="910" y="1858" />
              <mxPoint x="864" y="1858" />
            </Array>
          </mxGeometry>
        </mxCell>
        <mxCell id="CDEZrAH9GU6wmxjDfpgE-3" value="微商城、旺小店小程序&lt;br&gt;走默认代销小程序&lt;br&gt;yzwsc_wx_applet_2201" style="edgeLabel;html=1;align=center;verticalAlign=middle;resizable=0;points=[];" parent="CDEZrAH9GU6wmxjDfpgE-2" vertex="1" connectable="0">
          <mxGeometry x="0.075" relative="1" as="geometry">
            <mxPoint as="offset" />
          </mxGeometry>
        </mxCell>
        <mxCell id="CDEZrAH9GU6wmxjDfpgE-4" value="" style="html=1;points=[];perimeter=orthogonalPerimeter;rounded=0;shadow=0;comic=0;labelBackgroundColor=none;strokeWidth=1;fontFamily=Verdana;fontSize=12;align=center;" parent="1" vertex="1">
          <mxGeometry x="850" y="1919" width="10" height="40" as="geometry" />
        </mxCell>
        <mxCell id="CDEZrAH9GU6wmxjDfpgE-5" value="" style="html=1;verticalAlign=bottom;endArrow=block;labelBackgroundColor=none;fontFamily=Verdana;fontSize=12;elbow=vertical;edgeStyle=orthogonalEdgeStyle;curved=1;entryX=1;entryY=0.286;entryPerimeter=0;exitX=1.038;exitY=0.345;exitPerimeter=0;" parent="1" edge="1">
          <mxGeometry relative="1" as="geometry">
            <mxPoint x="855.3333333333335" y="1900" as="sourcePoint" />
            <mxPoint x="860.3333333333335" y="1938.3333333333335" as="targetPoint" />
            <Array as="points">
              <mxPoint x="910" y="1900" />
              <mxPoint x="910" y="1938" />
            </Array>
          </mxGeometry>
        </mxCell>
        <mxCell id="CDEZrAH9GU6wmxjDfpgE-6" value="应用市场小程序走默认&lt;br&gt;直连小程序&lt;br&gt;yzwsc_wx_applet_5801" style="edgeLabel;html=1;align=center;verticalAlign=middle;resizable=0;points=[];" parent="CDEZrAH9GU6wmxjDfpgE-5" vertex="1" connectable="0">
          <mxGeometry x="0.075" relative="1" as="geometry">
            <mxPoint as="offset" />
          </mxGeometry>
        </mxCell>
        <mxCell id="CDEZrAH9GU6wmxjDfpgE-7" value="" style="html=1;points=[];perimeter=orthogonalPerimeter;rounded=0;shadow=0;comic=0;labelBackgroundColor=none;strokeWidth=1;fontFamily=Verdana;fontSize=12;align=center;" parent="1" vertex="1">
          <mxGeometry x="850" y="1989" width="10" height="40" as="geometry" />
        </mxCell>
        <mxCell id="CDEZrAH9GU6wmxjDfpgE-8" value="" style="html=1;verticalAlign=bottom;endArrow=block;labelBackgroundColor=none;fontFamily=Verdana;fontSize=12;elbow=vertical;edgeStyle=orthogonalEdgeStyle;curved=1;entryX=1;entryY=0.286;entryPerimeter=0;exitX=1.038;exitY=0.345;exitPerimeter=0;" parent="1" edge="1">
          <mxGeometry relative="1" as="geometry">
            <mxPoint x="855.3333333333335" y="1970" as="sourcePoint" />
            <mxPoint x="860.3333333333335" y="2008.3333333333335" as="targetPoint" />
            <Array as="points">
              <mxPoint x="910" y="1970" />
              <mxPoint x="910" y="2008" />
            </Array>
          </mxGeometry>
        </mxCell>
        <mxCell id="CDEZrAH9GU6wmxjDfpgE-9" value="有赞会议、精选、爱逛小程序&lt;br&gt;走网联默认大账号&lt;br&gt;net_union_wx_ag_11" style="edgeLabel;html=1;align=center;verticalAlign=middle;resizable=0;points=[];" parent="CDEZrAH9GU6wmxjDfpgE-8" vertex="1" connectable="0">
          <mxGeometry x="0.075" relative="1" as="geometry">
            <mxPoint as="offset" />
          </mxGeometry>
        </mxCell>
        <mxCell id="CDEZrAH9GU6wmxjDfpgE-10" value="" style="html=1;points=[];perimeter=orthogonalPerimeter;rounded=0;shadow=0;comic=0;labelBackgroundColor=none;strokeWidth=1;fontFamily=Verdana;fontSize=12;align=center;" parent="1" vertex="1">
          <mxGeometry x="850" y="2059" width="10" height="40" as="geometry" />
        </mxCell>
        <mxCell id="CDEZrAH9GU6wmxjDfpgE-11" value="" style="html=1;verticalAlign=bottom;endArrow=block;labelBackgroundColor=none;fontFamily=Verdana;fontSize=12;elbow=vertical;edgeStyle=orthogonalEdgeStyle;curved=1;entryX=1;entryY=0.286;entryPerimeter=0;exitX=1.038;exitY=0.345;exitPerimeter=0;" parent="1" edge="1">
          <mxGeometry relative="1" as="geometry">
            <mxPoint x="855.3333333333335" y="2040" as="sourcePoint" />
            <mxPoint x="860.3333333333335" y="2078.3333333333335" as="targetPoint" />
            <Array as="points">
              <mxPoint x="910" y="2040" />
              <mxPoint x="910" y="2078" />
            </Array>
          </mxGeometry>
        </mxCell>
        <mxCell id="CDEZrAH9GU6wmxjDfpgE-12" value="有赞热卖走&lt;br&gt;net_wx_shell_21" style="edgeLabel;html=1;align=center;verticalAlign=middle;resizable=0;points=[];" parent="CDEZrAH9GU6wmxjDfpgE-11" vertex="1" connectable="0">
          <mxGeometry x="0.075" relative="1" as="geometry">
            <mxPoint as="offset" />
          </mxGeometry>
        </mxCell>
        <mxCell id="CDEZrAH9GU6wmxjDfpgE-13" value="" style="html=1;points=[];perimeter=orthogonalPerimeter;rounded=0;shadow=0;comic=0;labelBackgroundColor=none;strokeWidth=1;fontFamily=Verdana;fontSize=12;align=center;" parent="1" vertex="1">
          <mxGeometry x="850" y="2129" width="10" height="40" as="geometry" />
        </mxCell>
        <mxCell id="CDEZrAH9GU6wmxjDfpgE-14" value="" style="html=1;verticalAlign=bottom;endArrow=block;labelBackgroundColor=none;fontFamily=Verdana;fontSize=12;elbow=vertical;edgeStyle=orthogonalEdgeStyle;curved=1;entryX=1;entryY=0.286;entryPerimeter=0;exitX=1.038;exitY=0.345;exitPerimeter=0;" parent="1" edge="1">
          <mxGeometry relative="1" as="geometry">
            <mxPoint x="855.3333333333335" y="2110" as="sourcePoint" />
            <mxPoint x="860.3333333333335" y="2148.3333333333335" as="targetPoint" />
            <Array as="points">
              <mxPoint x="910" y="2110" />
              <mxPoint x="910" y="2148" />
            </Array>
          </mxGeometry>
        </mxCell>
        <mxCell id="CDEZrAH9GU6wmxjDfpgE-15" value="爱逛max小程序走&lt;br&gt;net_union_ag_max_21" style="edgeLabel;html=1;align=center;verticalAlign=middle;resizable=0;points=[];" parent="CDEZrAH9GU6wmxjDfpgE-14" vertex="1" connectable="0">
          <mxGeometry x="0.075" relative="1" as="geometry">
            <mxPoint as="offset" />
          </mxGeometry>
        </mxCell>
        <mxCell id="CDEZrAH9GU6wmxjDfpgE-16" value="" style="html=1;points=[];perimeter=orthogonalPerimeter;rounded=0;shadow=0;comic=0;labelBackgroundColor=none;strokeWidth=1;fontFamily=Verdana;fontSize=12;align=center;" parent="1" vertex="1">
          <mxGeometry x="850" y="2199" width="10" height="40" as="geometry" />
        </mxCell>
        <mxCell id="CDEZrAH9GU6wmxjDfpgE-17" value="" style="html=1;verticalAlign=bottom;endArrow=block;labelBackgroundColor=none;fontFamily=Verdana;fontSize=12;elbow=vertical;edgeStyle=orthogonalEdgeStyle;curved=1;entryX=1;entryY=0.286;entryPerimeter=0;exitX=1.038;exitY=0.345;exitPerimeter=0;" parent="1" edge="1">
          <mxGeometry relative="1" as="geometry">
            <mxPoint x="855.3333333333335" y="2180" as="sourcePoint" />
            <mxPoint x="860.3333333333335" y="2218.3333333333335" as="targetPoint" />
            <Array as="points">
              <mxPoint x="910" y="2180" />
              <mxPoint x="910" y="2218" />
            </Array>
          </mxGeometry>
        </mxCell>
        <mxCell id="CDEZrAH9GU6wmxjDfpgE-18" value="qq小程序走&lt;br&gt;yzjx_qq_pay" style="edgeLabel;html=1;align=center;verticalAlign=middle;resizable=0;points=[];" parent="CDEZrAH9GU6wmxjDfpgE-17" vertex="1" connectable="0">
          <mxGeometry x="0.075" relative="1" as="geometry">
            <mxPoint as="offset" />
          </mxGeometry>
        </mxCell>
        <mxCell id="CDEZrAH9GU6wmxjDfpgE-19" value="" style="html=1;points=[];perimeter=orthogonalPerimeter;rounded=0;shadow=0;comic=0;labelBackgroundColor=none;strokeWidth=1;fontFamily=Verdana;fontSize=12;align=center;" parent="1" vertex="1">
          <mxGeometry x="850" y="2269" width="10" height="40" as="geometry" />
        </mxCell>
        <mxCell id="CDEZrAH9GU6wmxjDfpgE-20" value="" style="html=1;verticalAlign=bottom;endArrow=block;labelBackgroundColor=none;fontFamily=Verdana;fontSize=12;elbow=vertical;edgeStyle=orthogonalEdgeStyle;curved=1;entryX=1;entryY=0.286;entryPerimeter=0;exitX=1.038;exitY=0.345;exitPerimeter=0;" parent="1" edge="1">
          <mxGeometry relative="1" as="geometry">
            <mxPoint x="855.3333333333335" y="2250" as="sourcePoint" />
            <mxPoint x="860.3333333333335" y="2288.3333333333335" as="targetPoint" />
            <Array as="points">
              <mxPoint x="910" y="2250" />
              <mxPoint x="910" y="2288" />
            </Array>
          </mxGeometry>
        </mxCell>
        <mxCell id="CDEZrAH9GU6wmxjDfpgE-21" value="一分钱认证走&lt;br&gt;yzwsc_wx_jsapi_5201" style="edgeLabel;html=1;align=center;verticalAlign=middle;resizable=0;points=[];" parent="CDEZrAH9GU6wmxjDfpgE-20" vertex="1" connectable="0">
          <mxGeometry x="0.075" relative="1" as="geometry">
            <mxPoint as="offset" />
          </mxGeometry>
        </mxCell>
        <mxCell id="CDEZrAH9GU6wmxjDfpgE-22" value="" style="html=1;points=[];perimeter=orthogonalPerimeter;rounded=0;shadow=0;comic=0;labelBackgroundColor=none;strokeWidth=1;fontFamily=Verdana;fontSize=12;align=center;" parent="1" vertex="1">
          <mxGeometry x="850" y="2339" width="10" height="40" as="geometry" />
        </mxCell>
        <mxCell id="CDEZrAH9GU6wmxjDfpgE-23" value="" style="html=1;verticalAlign=bottom;endArrow=block;labelBackgroundColor=none;fontFamily=Verdana;fontSize=12;elbow=vertical;edgeStyle=orthogonalEdgeStyle;curved=1;entryX=1;entryY=0.286;entryPerimeter=0;exitX=1.038;exitY=0.345;exitPerimeter=0;" parent="1" edge="1">
          <mxGeometry relative="1" as="geometry">
            <mxPoint x="855.3333333333335" y="2320" as="sourcePoint" />
            <mxPoint x="860.3333333333335" y="2358.3333333333335" as="targetPoint" />
            <Array as="points">
              <mxPoint x="910" y="2320" />
              <mxPoint x="910" y="2358" />
            </Array>
          </mxGeometry>
        </mxCell>
        <mxCell id="CDEZrAH9GU6wmxjDfpgE-24" value="有赞精选公众号线上路由配置：&lt;br&gt;switch.channel.route.black" style="edgeLabel;html=1;align=center;verticalAlign=middle;resizable=0;points=[];" parent="CDEZrAH9GU6wmxjDfpgE-23" vertex="1" connectable="0">
          <mxGeometry x="0.075" relative="1" as="geometry">
            <mxPoint as="offset" />
          </mxGeometry>
        </mxCell>
        <mxCell id="lfuquiuAlMo9zvZJqDUm-6" value="" style="html=1;points=[];perimeter=orthogonalPerimeter;rounded=0;shadow=0;comic=0;labelBackgroundColor=none;strokeWidth=1;fontFamily=Verdana;fontSize=12;align=center;" parent="1" vertex="1">
          <mxGeometry x="850" y="2509" width="10" height="40" as="geometry" />
        </mxCell>
        <mxCell id="lfuquiuAlMo9zvZJqDUm-7" value="" style="html=1;verticalAlign=bottom;endArrow=block;labelBackgroundColor=none;fontFamily=Verdana;fontSize=12;elbow=vertical;edgeStyle=orthogonalEdgeStyle;curved=1;entryX=1;entryY=0.286;entryPerimeter=0;exitX=1.038;exitY=0.345;exitPerimeter=0;" parent="1" edge="1">
          <mxGeometry relative="1" as="geometry">
            <mxPoint x="855.3333333333335" y="2490" as="sourcePoint" />
            <mxPoint x="860.3333333333335" y="2528.3333333333335" as="targetPoint" />
            <Array as="points">
              <mxPoint x="910" y="2490" />
              <mxPoint x="910" y="2528" />
            </Array>
          </mxGeometry>
        </mxCell>
        <mxCell id="lfuquiuAlMo9zvZJqDUm-8" value="获取命中渠道路由配置" style="edgeLabel;html=1;align=center;verticalAlign=middle;resizable=0;points=[];" parent="lfuquiuAlMo9zvZJqDUm-7" vertex="1" connectable="0">
          <mxGeometry x="0.075" relative="1" as="geometry">
            <mxPoint as="offset" />
          </mxGeometry>
        </mxCell>
        <mxCell id="lfuquiuAlMo9zvZJqDUm-9" value="获取命中渠道路由配置&lt;br&gt;1.获取微信路由配置：switch.channel.route&lt;br&gt;2.根据partnerId、payeeId&amp;amp;percent、payChannelApi、串费率、channelType过滤&lt;br&gt;&lt;span&gt; &lt;/span&gt;&lt;span&gt; &lt;/span&gt;&lt;span&gt; &lt;/span&gt;2.1.微商城、零售、美业、教育的微信公众号、小程序；普惠版小程序支持串费率&lt;br&gt;&lt;span&gt; &lt;/span&gt;&lt;span&gt; &lt;/span&gt;2.2.未指定channelType、或者未ONLINE直接命中，channelType是OFFLINE必须请求订单market_channel必须是2（1:线上，2:线下）" style="shape=note;size=20;whiteSpace=wrap;html=1;align=left;" parent="1" vertex="1">
          <mxGeometry x="510" y="2440" width="320" height="160" as="geometry" />
        </mxCell>
        <mxCell id="lfuquiuAlMo9zvZJqDUm-10" value="" style="html=1;points=[];perimeter=orthogonalPerimeter;rounded=0;shadow=0;comic=0;labelBackgroundColor=none;strokeWidth=1;fontFamily=Verdana;fontSize=12;align=center;" parent="1" vertex="1">
          <mxGeometry x="850" y="2759" width="10" height="40" as="geometry" />
        </mxCell>
        <mxCell id="lfuquiuAlMo9zvZJqDUm-11" value="" style="html=1;verticalAlign=bottom;endArrow=block;labelBackgroundColor=none;fontFamily=Verdana;fontSize=12;elbow=vertical;edgeStyle=orthogonalEdgeStyle;curved=1;entryX=1;entryY=0.286;entryPerimeter=0;exitX=1.038;exitY=0.345;exitPerimeter=0;" parent="1" edge="1">
          <mxGeometry relative="1" as="geometry">
            <mxPoint x="855.3333333333335" y="2740" as="sourcePoint" />
            <mxPoint x="860.3333333333335" y="2778.3333333333335" as="targetPoint" />
            <Array as="points">
              <mxPoint x="910" y="2740" />
              <mxPoint x="910" y="2778" />
            </Array>
          </mxGeometry>
        </mxCell>
        <mxCell id="lfuquiuAlMo9zvZJqDUm-12" value="根据代销配置过滤&lt;br&gt;可用路由配置" style="edgeLabel;html=1;align=center;verticalAlign=middle;resizable=0;points=[];" parent="lfuquiuAlMo9zvZJqDUm-11" vertex="1" connectable="0">
          <mxGeometry x="0.075" relative="1" as="geometry">
            <mxPoint as="offset" />
          </mxGeometry>
        </mxCell>
        <mxCell id="lfuquiuAlMo9zvZJqDUm-13" value="过滤所有可用路由配置&lt;br&gt;1.查询商户代销，过滤&lt;br&gt;2.如果没有任何路由配置，微信小程序抛降级至会有赞小程序进行兜底支付&lt;br&gt;3.低费率过滤路由" style="shape=note;size=20;whiteSpace=wrap;html=1;align=left;" parent="1" vertex="1">
          <mxGeometry x="510" y="2630" width="320" height="80" as="geometry" />
        </mxCell>
        <mxCell id="lfuquiuAlMo9zvZJqDUm-28" value="frame" style="shape=umlFrame;whiteSpace=wrap;html=1;" parent="1" vertex="1">
          <mxGeometry x="590" y="360" width="730" height="260" as="geometry" />
        </mxCell>
        <mxCell id="lfuquiuAlMo9zvZJqDUm-29" value="[paytool == wxpay]" style="text;html=1;align=center;verticalAlign=middle;resizable=0;points=[];autosize=1;strokeColor=none;" parent="1" vertex="1">
          <mxGeometry x="590" y="390" width="120" height="20" as="geometry" />
        </mxCell>
        <mxCell id="lfuquiuAlMo9zvZJqDUm-30" value="pay-customercore" style="shape=umlLifeline;perimeter=lifelinePerimeter;whiteSpace=wrap;html=1;container=1;collapsible=0;recursiveResize=0;outlineConnect=0;rounded=1;shadow=0;comic=0;labelBackgroundColor=none;strokeWidth=1;fontFamily=Verdana;fontSize=12;align=center;" parent="1" vertex="1">
          <mxGeometry x="940" y="170" width="100" height="3360" as="geometry" />
        </mxCell>
        <mxCell id="lfuquiuAlMo9zvZJqDUm-32" value="" style="html=1;points=[];perimeter=orthogonalPerimeter;rounded=0;shadow=0;comic=0;labelBackgroundColor=none;strokeWidth=1;fontFamily=Verdana;fontSize=12;align=center;" parent="1" vertex="1">
          <mxGeometry x="985" y="2650" width="10" height="40" as="geometry" />
        </mxCell>
        <mxCell id="lfuquiuAlMo9zvZJqDUm-33" value="查询商户代销配置" style="html=1;verticalAlign=bottom;endArrow=block;labelBackgroundColor=none;fontFamily=Verdana;fontSize=12;edgeStyle=elbowEdgeStyle;elbow=vertical;exitX=1;exitY=0.854;exitDx=0;exitDy=0;exitPerimeter=0;" parent="1" edge="1">
          <mxGeometry relative="1" as="geometry">
            <mxPoint x="855" y="2650" as="sourcePoint" />
            <mxPoint x="987" y="2651.6" as="targetPoint" />
            <Array as="points">
              <mxPoint x="860" y="2651.6" />
            </Array>
          </mxGeometry>
        </mxCell>
        <mxCell id="lfuquiuAlMo9zvZJqDUm-34" value="return" style="html=1;verticalAlign=bottom;endArrow=open;dashed=1;endSize=6;labelBackgroundColor=none;fontFamily=Verdana;fontSize=12;edgeStyle=elbowEdgeStyle;elbow=vertical;" parent="1" edge="1">
          <mxGeometry relative="1" as="geometry">
            <mxPoint x="855" y="2680" as="targetPoint" />
            <Array as="points">
              <mxPoint x="930" y="2680" />
              <mxPoint x="960" y="2680" />
            </Array>
            <mxPoint x="985" y="2680" as="sourcePoint" />
          </mxGeometry>
        </mxCell>
        <mxCell id="lfuquiuAlMo9zvZJqDUm-38" value="" style="html=1;points=[];perimeter=orthogonalPerimeter;rounded=0;shadow=0;comic=0;labelBackgroundColor=none;strokeWidth=1;fontFamily=Verdana;fontSize=12;align=center;" parent="1" vertex="1">
          <mxGeometry x="850" y="2849" width="10" height="40" as="geometry" />
        </mxCell>
        <mxCell id="lfuquiuAlMo9zvZJqDUm-39" value="" style="html=1;verticalAlign=bottom;endArrow=block;labelBackgroundColor=none;fontFamily=Verdana;fontSize=12;elbow=vertical;edgeStyle=orthogonalEdgeStyle;curved=1;entryX=1;entryY=0.286;entryPerimeter=0;exitX=1.038;exitY=0.345;exitPerimeter=0;" parent="1" edge="1">
          <mxGeometry relative="1" as="geometry">
            <mxPoint x="855.3333333333335" y="2830" as="sourcePoint" />
            <mxPoint x="860.3333333333335" y="2868.3333333333335" as="targetPoint" />
            <Array as="points">
              <mxPoint x="910" y="2830" />
              <mxPoint x="910" y="2868" />
            </Array>
          </mxGeometry>
        </mxCell>
        <mxCell id="lfuquiuAlMo9zvZJqDUm-40" value="微信小程序抛降级有赞&lt;br&gt;小程序兜底异常" style="edgeLabel;html=1;align=center;verticalAlign=middle;resizable=0;points=[];" parent="lfuquiuAlMo9zvZJqDUm-39" vertex="1" connectable="0">
          <mxGeometry x="0.075" relative="1" as="geometry">
            <mxPoint as="offset" />
          </mxGeometry>
        </mxCell>
        <mxCell id="lfuquiuAlMo9zvZJqDUm-41" value="" style="html=1;points=[];perimeter=orthogonalPerimeter;rounded=0;shadow=0;comic=0;labelBackgroundColor=none;strokeWidth=1;fontFamily=Verdana;fontSize=12;align=center;" parent="1" vertex="1">
          <mxGeometry x="850" y="2939" width="10" height="40" as="geometry" />
        </mxCell>
        <mxCell id="lfuquiuAlMo9zvZJqDUm-42" value="" style="html=1;verticalAlign=bottom;endArrow=block;labelBackgroundColor=none;fontFamily=Verdana;fontSize=12;elbow=vertical;edgeStyle=orthogonalEdgeStyle;curved=1;entryX=1;entryY=0.286;entryPerimeter=0;exitX=1.038;exitY=0.345;exitPerimeter=0;" parent="1" edge="1">
          <mxGeometry relative="1" as="geometry">
            <mxPoint x="855.3333333333335" y="2920" as="sourcePoint" />
            <mxPoint x="860.3333333333335" y="2958.3333333333335" as="targetPoint" />
            <Array as="points">
              <mxPoint x="910" y="2920" />
              <mxPoint x="910" y="2958" />
            </Array>
          </mxGeometry>
        </mxCell>
        <mxCell id="lfuquiuAlMo9zvZJqDUm-43" value="低费率过滤路由" style="edgeLabel;html=1;align=center;verticalAlign=middle;resizable=0;points=[];" parent="lfuquiuAlMo9zvZJqDUm-42" vertex="1" connectable="0">
          <mxGeometry x="0.075" relative="1" as="geometry">
            <mxPoint as="offset" />
          </mxGeometry>
        </mxCell>
        <mxCell id="lfuquiuAlMo9zvZJqDUm-44" value="" style="html=1;points=[];perimeter=orthogonalPerimeter;rounded=0;shadow=0;comic=0;labelBackgroundColor=none;strokeWidth=1;fontFamily=Verdana;fontSize=12;align=center;" parent="1" vertex="1">
          <mxGeometry x="850" y="3029" width="10" height="40" as="geometry" />
        </mxCell>
        <mxCell id="lfuquiuAlMo9zvZJqDUm-45" value="" style="html=1;verticalAlign=bottom;endArrow=block;labelBackgroundColor=none;fontFamily=Verdana;fontSize=12;elbow=vertical;edgeStyle=orthogonalEdgeStyle;curved=1;entryX=1;entryY=0.286;entryPerimeter=0;exitX=1.038;exitY=0.345;exitPerimeter=0;" parent="1" edge="1">
          <mxGeometry relative="1" as="geometry">
            <mxPoint x="855.3333333333335" y="3010" as="sourcePoint" />
            <mxPoint x="860.3333333333335" y="3048.3333333333335" as="targetPoint" />
            <Array as="points">
              <mxPoint x="910" y="3010" />
              <mxPoint x="910" y="3048" />
            </Array>
          </mxGeometry>
        </mxCell>
        <mxCell id="lfuquiuAlMo9zvZJqDUm-46" value="判断是否路由切换" style="edgeLabel;html=1;align=center;verticalAlign=middle;resizable=0;points=[];" parent="lfuquiuAlMo9zvZJqDUm-45" vertex="1" connectable="0">
          <mxGeometry x="0.075" relative="1" as="geometry">
            <mxPoint as="offset" />
          </mxGeometry>
        </mxCell>
        <mxCell id="lfuquiuAlMo9zvZJqDUm-47" value="判断是否路由切换&lt;br&gt;1.为命中路由规则，不切换&lt;br&gt;2.只有一个路由规则，不切换&lt;br&gt;3.所有规则的权重为0，不切换" style="shape=note;size=20;whiteSpace=wrap;html=1;align=left;" parent="1" vertex="1">
          <mxGeometry x="510" y="3000" width="320" height="80" as="geometry" />
        </mxCell>
        <mxCell id="lfuquiuAlMo9zvZJqDUm-48" value="" style="html=1;points=[];perimeter=orthogonalPerimeter;rounded=0;shadow=0;comic=0;labelBackgroundColor=none;strokeWidth=1;fontFamily=Verdana;fontSize=12;align=center;" parent="1" vertex="1">
          <mxGeometry x="850" y="3119" width="10" height="40" as="geometry" />
        </mxCell>
        <mxCell id="lfuquiuAlMo9zvZJqDUm-49" value="" style="html=1;verticalAlign=bottom;endArrow=block;labelBackgroundColor=none;fontFamily=Verdana;fontSize=12;elbow=vertical;edgeStyle=orthogonalEdgeStyle;curved=1;entryX=1;entryY=0.286;entryPerimeter=0;exitX=1.038;exitY=0.345;exitPerimeter=0;" parent="1" edge="1">
          <mxGeometry relative="1" as="geometry">
            <mxPoint x="855.3333333333335" y="3100" as="sourcePoint" />
            <mxPoint x="860.3333333333335" y="3138.3333333333335" as="targetPoint" />
            <Array as="points">
              <mxPoint x="910" y="3100" />
              <mxPoint x="910" y="3138" />
            </Array>
          </mxGeometry>
        </mxCell>
        <mxCell id="lfuquiuAlMo9zvZJqDUm-50" value="根据优先级权重&lt;br&gt;筛选路由规则" style="edgeLabel;html=1;align=center;verticalAlign=middle;resizable=0;points=[];" parent="lfuquiuAlMo9zvZJqDUm-49" vertex="1" connectable="0">
          <mxGeometry x="0.075" relative="1" as="geometry">
            <mxPoint as="offset" />
          </mxGeometry>
        </mxCell>
        <mxCell id="lfuquiuAlMo9zvZJqDUm-51" value="" style="html=1;points=[];perimeter=orthogonalPerimeter;rounded=0;shadow=0;comic=0;labelBackgroundColor=none;strokeWidth=1;fontFamily=Verdana;fontSize=12;align=center;" parent="1" vertex="1">
          <mxGeometry x="850" y="3199" width="10" height="40" as="geometry" />
        </mxCell>
        <mxCell id="lfuquiuAlMo9zvZJqDUm-52" value="" style="html=1;verticalAlign=bottom;endArrow=block;labelBackgroundColor=none;fontFamily=Verdana;fontSize=12;elbow=vertical;edgeStyle=orthogonalEdgeStyle;curved=1;entryX=1;entryY=0.286;entryPerimeter=0;exitX=1.038;exitY=0.345;exitPerimeter=0;" parent="1" edge="1">
          <mxGeometry relative="1" as="geometry">
            <mxPoint x="855.3333333333335" y="3180" as="sourcePoint" />
            <mxPoint x="860.3333333333335" y="3218.3333333333335" as="targetPoint" />
            <Array as="points">
              <mxPoint x="910" y="3180" />
              <mxPoint x="910" y="3218" />
            </Array>
          </mxGeometry>
        </mxCell>
        <mxCell id="lfuquiuAlMo9zvZJqDUm-53" value="将subAppId、subMchId&lt;br&gt;放到ThreadLocal" style="edgeLabel;html=1;align=center;verticalAlign=middle;resizable=0;points=[];" parent="lfuquiuAlMo9zvZJqDUm-52" vertex="1" connectable="0">
          <mxGeometry x="0.075" relative="1" as="geometry">
            <mxPoint as="offset" />
          </mxGeometry>
        </mxCell>
        <mxCell id="lfuquiuAlMo9zvZJqDUm-54" value="1.app_id：服务商模式下服务商应用标识 | 普通服务商模式下的商户应用标识&lt;br&gt;2.mch_id：服务商模式下服务商标识 | 普通服务商模式下的商户号标识&lt;br&gt;3.sub_app_id：服务商模式下子应用的标识&lt;br&gt;4.sub_mch_id：服务商模式下子商户号标识&lt;br&gt;5.open_id：用户标识&lt;br&gt;6.sub_open_id：子用户标识&lt;br&gt;备注：WXPAY_JSAPI、WXPAY_BARCODE、UNIONPAY_WX_BARCODE_DEFAULT_OFFLINE，微信二清模式不需要填充subAppId、subMchId" style="shape=note;size=20;whiteSpace=wrap;html=1;align=left;" parent="1" vertex="1">
          <mxGeometry x="510" y="3100" width="320" height="191" as="geometry" />
        </mxCell>
        <mxCell id="lfuquiuAlMo9zvZJqDUm-55" value="" style="html=1;points=[];perimeter=orthogonalPerimeter;rounded=0;shadow=0;comic=0;labelBackgroundColor=none;strokeWidth=1;fontFamily=Verdana;fontSize=12;align=center;" parent="1" vertex="1">
          <mxGeometry x="850" y="3380" width="10" height="40" as="geometry" />
        </mxCell>
        <mxCell id="lfuquiuAlMo9zvZJqDUm-56" value="" style="html=1;verticalAlign=bottom;endArrow=block;labelBackgroundColor=none;fontFamily=Verdana;fontSize=12;elbow=vertical;edgeStyle=orthogonalEdgeStyle;curved=1;exitX=1.038;exitY=0.345;exitPerimeter=0;entryX=1.1;entryY=0.525;entryDx=0;entryDy=0;entryPerimeter=0;" parent="1" target="lfuquiuAlMo9zvZJqDUm-55" edge="1">
          <mxGeometry relative="1" as="geometry">
            <mxPoint x="855.3333333333335" y="3320" as="sourcePoint" />
            <mxPoint x="860.3333333333335" y="3358.3333333333335" as="targetPoint" />
            <Array as="points">
              <mxPoint x="910" y="3320" />
              <mxPoint x="910" y="3400" />
            </Array>
          </mxGeometry>
        </mxCell>
        <mxCell id="lfuquiuAlMo9zvZJqDUm-57" value="更新baserequest模型的&lt;br&gt;渠道（channelCode）、&lt;br&gt;支付方式（modeCode）" style="edgeLabel;html=1;align=center;verticalAlign=middle;resizable=0;points=[];" parent="lfuquiuAlMo9zvZJqDUm-56" vertex="1" connectable="0">
          <mxGeometry x="0.075" relative="1" as="geometry">
            <mxPoint as="offset" />
          </mxGeometry>
        </mxCell>
        <mxCell id="lfuquiuAlMo9zvZJqDUm-61" value="" style="html=1;points=[];perimeter=orthogonalPerimeter;rounded=0;shadow=0;comic=0;labelBackgroundColor=none;strokeWidth=1;fontFamily=Verdana;fontSize=12;align=center;" parent="1" vertex="1">
          <mxGeometry x="850" y="3649" width="10" height="40" as="geometry" />
        </mxCell>
        <mxCell id="lfuquiuAlMo9zvZJqDUm-62" value="" style="html=1;verticalAlign=bottom;endArrow=block;labelBackgroundColor=none;fontFamily=Verdana;fontSize=12;elbow=vertical;edgeStyle=orthogonalEdgeStyle;curved=1;exitX=1.038;exitY=0.345;exitPerimeter=0;" parent="1" target="lfuquiuAlMo9zvZJqDUm-61" edge="1">
          <mxGeometry relative="1" as="geometry">
            <mxPoint x="855.3333333333335" y="3630" as="sourcePoint" />
            <mxPoint x="860.3333333333335" y="3668.3333333333335" as="targetPoint" />
            <Array as="points">
              <mxPoint x="910" y="3630" />
              <mxPoint x="910" y="3668" />
            </Array>
          </mxGeometry>
        </mxCell>
        <mxCell id="lfuquiuAlMo9zvZJqDUm-63" value="根据channelCode&lt;br&gt;获取路由策略" style="edgeLabel;html=1;align=center;verticalAlign=middle;resizable=0;points=[];" parent="lfuquiuAlMo9zvZJqDUm-62" vertex="1" connectable="0">
          <mxGeometry x="0.075" relative="1" as="geometry">
            <mxPoint as="offset" />
          </mxGeometry>
        </mxCell>
        <mxCell id="lfuquiuAlMo9zvZJqDUm-65" value="" style="html=1;points=[];perimeter=orthogonalPerimeter;rounded=0;shadow=0;comic=0;labelBackgroundColor=none;strokeWidth=1;fontFamily=Verdana;fontSize=12;align=center;" parent="1" vertex="1">
          <mxGeometry x="850" y="3739" width="10" height="40" as="geometry" />
        </mxCell>
        <mxCell id="lfuquiuAlMo9zvZJqDUm-66" value="" style="html=1;verticalAlign=bottom;endArrow=block;labelBackgroundColor=none;fontFamily=Verdana;fontSize=12;elbow=vertical;edgeStyle=orthogonalEdgeStyle;curved=1;exitX=1.038;exitY=0.345;exitPerimeter=0;" parent="1" target="lfuquiuAlMo9zvZJqDUm-65" edge="1">
          <mxGeometry relative="1" as="geometry">
            <mxPoint x="855.3333333333335" y="3720" as="sourcePoint" />
            <mxPoint x="860.3333333333335" y="3758.3333333333335" as="targetPoint" />
            <Array as="points">
              <mxPoint x="1010" y="3720" />
              <mxPoint x="1010" y="3758" />
            </Array>
          </mxGeometry>
        </mxCell>
        <mxCell id="lfuquiuAlMo9zvZJqDUm-67" value="根据modeCode、&lt;br&gt;channelCode、bizPartner查询&lt;br&gt;渠道路由表（t_channel_route）" style="edgeLabel;html=1;align=center;verticalAlign=middle;resizable=0;points=[];" parent="lfuquiuAlMo9zvZJqDUm-66" vertex="1" connectable="0">
          <mxGeometry x="0.075" relative="1" as="geometry">
            <mxPoint x="-50" y="-15" as="offset" />
          </mxGeometry>
        </mxCell>
        <mxCell id="xZwOvVEvhHs4_ISylkvG-7" value="" style="html=1;points=[];perimeter=orthogonalPerimeter;rounded=0;shadow=0;comic=0;labelBackgroundColor=none;strokeWidth=1;fontFamily=Verdana;fontSize=12;align=center;" vertex="1" parent="1">
          <mxGeometry x="850" y="3830" width="10" height="40" as="geometry" />
        </mxCell>
        <mxCell id="xZwOvVEvhHs4_ISylkvG-8" value="" style="html=1;verticalAlign=bottom;endArrow=block;labelBackgroundColor=none;fontFamily=Verdana;fontSize=12;elbow=vertical;edgeStyle=orthogonalEdgeStyle;curved=1;exitX=1.038;exitY=0.345;exitPerimeter=0;" edge="1" parent="1" target="xZwOvVEvhHs4_ISylkvG-7">
          <mxGeometry relative="1" as="geometry">
            <mxPoint x="855.3333333333335" y="3811" as="sourcePoint" />
            <mxPoint x="860.3333333333335" y="3849.3333333333335" as="targetPoint" />
            <Array as="points">
              <mxPoint x="910" y="3811" />
              <mxPoint x="910" y="3849" />
            </Array>
          </mxGeometry>
        </mxCell>
        <mxCell id="xZwOvVEvhHs4_ISylkvG-9" value="随机选一个" style="edgeLabel;html=1;align=center;verticalAlign=middle;resizable=0;points=[];" vertex="1" connectable="0" parent="xZwOvVEvhHs4_ISylkvG-8">
          <mxGeometry x="0.075" relative="1" as="geometry">
            <mxPoint as="offset" />
          </mxGeometry>
        </mxCell>
        <mxCell id="xZwOvVEvhHs4_ISylkvG-11" value="1.过滤" style="shape=note;size=20;whiteSpace=wrap;html=1;align=left;" vertex="1" parent="1">
          <mxGeometry x="650" y="3719" width="180" height="51" as="geometry" />
        </mxCell>
        <mxCell id="xZwOvVEvhHs4_ISylkvG-12" value="2.筛选" style="shape=note;size=20;whiteSpace=wrap;html=1;align=left;" vertex="1" parent="1">
          <mxGeometry x="650" y="3810" width="180" height="51" as="geometry" />
        </mxCell>
      </root>
    </mxGraphModel>
  </diagram>
</mxfile>
